<?xml version="1.0" encoding="UTF-8"?>
<svg id="Layer_1" data-name="Layer 1" xmlns="http://www.w3.org/2000/svg" xmlns:xlink="http://www.w3.org/1999/xlink" viewBox="0 0 84 86">
  <defs>
    <style>
      .cls-1 {
        fill: none;
      }

      .cls-2 {
        opacity: .6;
      }

      .cls-3 {
        fill: #54c48b;
      }

      .cls-4 {
        fill: #9d00ff;
      }

      .cls-5 {
        fill: #ff1083;
      }

      .cls-6 {
        fill: #e45d40;
      }

      .cls-7 {
        clip-path: url(#clippath);
      }
    </style>
    <clipPath id="clippath">
      <rect class="cls-1" y=".69" width="84" height="85"/>
    </clipPath>
  </defs>
  <g class="cls-7">
    <g>
      <g class="cls-2">
        <path class="cls-4" d="M64.14,33c-2.16,0-4.32-.54-6.23-1.57-.73-.39-1-1.3-.61-2.03.39-.73,1.3-1,2.03-.61,1.92,1.04,4.17,1.43,6.34,1.09,2.16-.34,4.19-1.39,5.7-2.97,1.51-1.58,2.49-3.64,2.73-5.82.25-2.17-.23-4.41-1.35-6.29-1.12-1.88-2.85-3.36-4.88-4.18-2.03-.82-4.31-.95-6.42-.37-2.11.58-4,1.86-5.33,3.6-1.33,1.74-2.06,3.9-2.06,6.09,0,.67.07,1.35.2,2.02.16.81-.36,1.6-1.17,1.77-.81.17-1.6-.36-1.77-1.17-.17-.86-.26-1.74-.26-2.61,0-2.84.95-5.65,2.68-7.91,1.72-2.26,4.18-3.92,6.92-4.67,2.74-.75,5.7-.58,8.33.48,2.63,1.06,4.89,2.99,6.34,5.43,1.45,2.44,2.08,5.34,1.75,8.16-.32,2.82-1.58,5.5-3.55,7.55-1.97,2.05-4.59,3.42-7.4,3.86-.66.1-1.33.15-2,.15Z"/>
      </g>
      <path class="cls-3" d="M64.14,33c-2.16,0-4.32-.54-6.23-1.57-.73-.39-1-1.3-.61-2.03.39-.73,1.3-1,2.03-.61,1.92,1.04,4.17,1.43,6.34,1.09,2.16-.34,4.19-1.39,5.7-2.97,1.51-1.58,2.49-3.64,2.73-5.82.25-2.17-.23-4.41-1.35-6.29-1.12-1.88-2.85-3.36-4.88-4.18-2.03-.82-4.31-.95-6.42-.37-2.11.58-4,1.86-5.33,3.6-1.33,1.74-2.06,3.9-2.06,6.09,0,.67.07,1.35.2,2.02.16.81-.36,1.6-1.17,1.77-.81.17-1.6-.36-1.77-1.17-.17-.86-.26-1.74-.26-2.61,0-2.84.95-5.65,2.68-7.91,1.72-2.26,4.18-3.92,6.92-4.67,2.74-.75,5.7-.58,8.33.48,2.63,1.06,4.89,2.99,6.34,5.43,1.45,2.44,2.08,5.34,1.75,8.16-.32,2.82-1.58,5.5-3.55,7.55-1.97,2.05-4.59,3.42-7.4,3.86-.66.1-1.33.15-2,.15Z"/>
      <g>
        <path class="cls-6" d="M47.94,79.25h-18.5c-.83,0-1.5-.67-1.5-1.5s.67-1.5,1.5-1.5h18.5c.83,0,1.5.67,1.5,1.5s-.67,1.5-1.5,1.5Z"/>
        <path class="cls-5" d="M38.69,79.25c-.83,0-1.5-.67-1.5-1.5v-27.75c0-.83.67-1.5,1.5-1.5s1.5.67,1.5,1.5v27.75c0,.83-.67,1.5-1.5,1.5Z"/>
        <path class="cls-5" d="M6.41,6.88l-1.5-.09-.19,2.99,1.5.09.19-2.99ZM17.45,9.06l1.3-.74-.4-.7-.81-.05-.09,1.5ZM24.2,23.93c.41.72,1.33.97,2.05.56.72-.41.97-1.33.56-2.05l-2.61,1.49ZM6.23,9.87l11.13.69.19-2.99-11.13-.69-.19,2.99ZM16.15,9.81l8.05,14.12,2.61-1.49-8.05-14.12-2.61,1.49Z"/>
        <path class="cls-5" d="M62.99,23.68l1.1,1.02,2.32-2.52h-3.43v1.5ZM14.39,23.68v-1.5h-3.43l2.32,2.52,1.1-1.02ZM38.69,50l-1.1,1.02c.28.31.68.48,1.1.48.42,0,.82-.17,1.1-.48l-1.1-1.02ZM13.29,24.69l24.3,26.32,2.2-2.04L15.49,22.66l-2.2,2.04ZM62.99,22.18H14.39v3h48.6v-3ZM61.89,22.66l-24.3,26.32,2.2,2.03,24.3-26.32-2.2-2.03Z"/>
      </g>
      <path class="cls-6" d="M40.19,77.75v-27.75c0-.83-.67-1.5-1.5-1.5s-1.5.67-1.5,1.5v27.75c0,.83.67,1.5,1.5,1.5s1.5-.67,1.5-1.5Z"/>
      <path class="cls-6" d="M6.41,6.88l-1.5-.09-.19,2.99,1.5.09.19-2.99ZM17.45,9.06l1.3-.74-.4-.7-.81-.05-.09,1.5ZM24.2,23.93c.41.72,1.33.97,2.05.56.72-.41.97-1.33.56-2.05l-2.61,1.49ZM6.23,9.87l11.13.69.19-2.99-11.13-.69-.19,2.99ZM16.15,9.81l8.05,14.12,2.61-1.49-8.05-14.12-2.61,1.49Z"/>
      <path class="cls-6" d="M62.99,23.68l1.1,1.02,2.32-2.52h-3.43v1.5ZM14.39,23.68v-1.5h-3.43l2.32,2.52,1.1-1.02ZM38.69,50l-1.1,1.02c.28.31.68.48,1.1.48.42,0,.82-.17,1.1-.48l-1.1-1.02ZM13.29,24.69l24.3,26.32,2.2-2.04L15.49,22.66l-2.2,2.04ZM62.99,22.18H14.39v3h48.6v-3ZM61.89,22.66l-24.3,26.32,2.2,2.03,24.3-26.32-2.2-2.03Z"/>
    </g>
  </g>
</svg>