<?xml version="1.0" encoding="UTF-8"?>
<svg id="Layer_1" data-name="Layer 1" xmlns="http://www.w3.org/2000/svg" viewBox="0 0 84 86">
  <defs>
    <style>
      .cls-1 {
        fill: #54c48b;
      }

      .cls-2 {
        fill: #e45d40;
      }
    </style>
  </defs>
  <g>
    <path class="cls-2" d="M35.06,79.94c-16.13,0-29.25-13.12-29.25-29.25s13.12-29.25,29.25-29.25,29.25,13.12,29.25,29.25-13.12,29.25-29.25,29.25ZM35.06,24.44c-14.47,0-26.25,11.78-26.25,26.25s11.78,26.25,26.25,26.25,26.25-11.78,26.25-26.25-11.78-26.25-26.25-26.25Z"/>
    <path class="cls-2" d="M36.21,79.9c-.5,0-1-.26-1.28-.72-.43-.71-.21-1.63.5-2.06,7.29-4.45,12.01-14.82,12.01-26.43s-4.72-22.01-12.03-26.44c-.71-.43-.93-1.35-.5-2.06.43-.71,1.35-.93,2.06-.5,8.19,4.97,13.47,16.35,13.47,29.01s-5.28,24.01-13.44,28.99c-.24.15-.51.22-.78.22Z"/>
    <path class="cls-2" d="M33.56,22.94c0,.83.67,1.5,1.5,1.5s1.5-.67,1.5-1.5h-3ZM36.56,9.06v-1.5h-3v1.5h3ZM36.56,22.94v-13.88h-3v13.88h3Z"/>
    <path class="cls-2" d="M33.91,79.9c-.27,0-.54-.07-.78-.22-8.17-4.98-13.44-16.36-13.44-28.99s5.29-24.05,13.48-29.01c.71-.43,1.63-.21,2.06.5.43.71.2,1.63-.5,2.06-7.31,4.43-12.04,14.81-12.04,26.45s4.71,21.98,12.01,26.43c.71.43.93,1.35.5,2.06-.28.46-.78.72-1.28.72Z"/>
    <path class="cls-2" d="M35.06,61.44c-14.18,0-29.25-3.77-29.25-10.75s15.07-10.75,29.25-10.75,29.25,3.77,29.25,10.75-15.07,10.75-29.25,10.75ZM35.06,42.94c-16.26,0-26.25,4.51-26.25,7.75s9.99,7.75,26.25,7.75,26.25-4.51,26.25-7.75-9.99-7.75-26.25-7.75Z"/>
  </g>
  <path class="cls-2" d="M35.06,79.94c-16.13,0-29.25-13.12-29.25-29.25s13.12-29.25,29.25-29.25,29.25,13.12,29.25,29.25-13.12,29.25-29.25,29.25ZM35.06,24.44c-14.47,0-26.25,11.78-26.25,26.25s11.78,26.25,26.25,26.25,26.25-11.78,26.25-26.25-11.78-26.25-26.25-26.25Z"/>
  <path class="cls-2" d="M36.21,79.9c-.5,0-1-.26-1.28-.72-.43-.71-.21-1.63.5-2.06,7.29-4.45,12.01-14.82,12.01-26.43s-4.72-22.01-12.03-26.44c-.71-.43-.93-1.35-.5-2.06.43-.71,1.35-.93,2.06-.5,8.19,4.97,13.47,16.35,13.47,29.01s-5.28,24.01-13.44,28.99c-.24.15-.51.22-.78.22Z"/>
  <path class="cls-2" d="M33.56,22.94c0,.83.67,1.5,1.5,1.5s1.5-.67,1.5-1.5h-3ZM36.56,9.06v-1.5h-3v1.5h3ZM36.56,22.94v-13.88h-3v13.88h3Z"/>
  <path class="cls-2" d="M33.91,79.9c-.27,0-.54-.07-.78-.22-8.17-4.98-13.44-16.36-13.44-28.99s5.29-24.05,13.48-29.01c.71-.43,1.63-.21,2.06.5.43.71.2,1.63-.5,2.06-7.31,4.43-12.04,14.81-12.04,26.45s4.71,21.98,12.01,26.43c.71.43.93,1.35.5,2.06-.28.46-.78.72-1.28.72Z"/>
  <path class="cls-2" d="M35.06,61.44c-14.18,0-29.25-3.77-29.25-10.75s15.07-10.75,29.25-10.75,29.25,3.77,29.25,10.75-15.07,10.75-29.25,10.75ZM35.06,42.94c-16.26,0-26.25,4.51-26.25,7.75s9.99,7.75,26.25,7.75,26.25-4.51,26.25-7.75-9.99-7.75-26.25-7.75Z"/>
  <g>
    <rect class="cls-1" x="56.69" y="7.56" width="3" height="12.25"/>
    <rect class="cls-1" x="52.06" y="12.19" width="12.25" height="3"/>
    <rect class="cls-1" x="70.56" y="21.44" width="3" height="12.25"/>
    <rect class="cls-1" x="65.94" y="26.06" width="12.25" height="3"/>
  </g>
  <rect class="cls-1" x="52.06" y="12.19" width="12.25" height="3"/>
  <g>
    <rect class="cls-1" x="70.56" y="21.44" width="3" height="12.25"/>
    <rect class="cls-1" x="65.94" y="26.06" width="12.25" height="3"/>
  </g>
</svg>