<?xml version="1.0" encoding="UTF-8"?>
<svg id="Layer_1" data-name="Layer 1" xmlns="http://www.w3.org/2000/svg" viewBox="0 0 84 86">
  <defs>
    <style>
      .cls-1 {
        stroke-linecap: round;
      }

      .cls-1, .cls-2 {
        fill: none;
        stroke: #ff1083;
        stroke-linejoin: round;
        stroke-width: 3px;
      }

      .cls-2 {
        stroke-linecap: square;
      }

      .cls-3 {
        opacity: .8;
      }

      .cls-4 {
        opacity: .46;
      }

      .cls-5 {
        fill: #54c48b;
      }

      .cls-6 {
        fill: #9d00ff;
      }

      .cls-7 {
        fill: #ff1083;
      }

      .cls-8 {
        fill: #e45d40;
      }
    </style>
  </defs>
  <g class="cls-3">
    <path class="cls-7" d="M7.31,16.81v-1.5h-1.5v1.5h1.5ZM76.69,16.81h1.5v-1.5h-1.5v1.5ZM76.69,76.94v1.5h1.5v-1.5h-1.5ZM7.31,76.94h-1.5v1.5h1.5v-1.5ZM7.31,18.31h69.37v-3H7.31v3ZM75.19,16.81v60.12h3V16.81h-3ZM76.69,75.44H7.31v3h69.37v-3ZM8.81,76.94V16.81h-3v60.12h3Z"/>
    <path class="cls-1" d="M7.31,35.31h69.37"/>
    <path class="cls-2" d="M25.81,23.75V7.56"/>
    <path class="cls-2" d="M58.19,23.75V7.56"/>
  </g>
  <path class="cls-8" d="M7.31,16.81v-1.5h-1.5v1.5h1.5ZM76.69,16.81h1.5v-1.5h-1.5v1.5ZM76.69,76.94v1.5h1.5v-1.5h-1.5ZM7.31,76.94h-1.5v1.5h1.5v-1.5ZM7.31,18.31h69.37v-3H7.31v3ZM75.19,16.81v60.12h3V16.81h-3ZM76.69,75.44H7.31v3h69.37v-3ZM8.81,76.94V16.81h-3v60.12h3Z"/>
  <path class="cls-8" d="M76.69,36.81H7.31c-.83,0-1.5-.67-1.5-1.5s.67-1.5,1.5-1.5h69.38c.83,0,1.5.67,1.5,1.5s-.67,1.5-1.5,1.5Z"/>
  <rect class="cls-8" x="24.31" y="6.06" width="3" height="19.19"/>
  <rect class="cls-8" x="56.69" y="6.06" width="3" height="19.19"/>
  <g class="cls-4">
    <rect class="cls-6" x="19" y="44.88" width="6" height="6"/>
    <rect class="cls-6" x="19" y="60.88" width="6" height="6"/>
    <rect class="cls-6" x="39" y="44.88" width="6" height="6"/>
    <rect class="cls-6" x="39" y="60.88" width="6" height="6"/>
    <rect class="cls-6" x="59" y="44.88" width="6" height="6"/>
    <rect class="cls-6" x="59" y="60.88" width="6" height="6"/>
  </g>
  <rect class="cls-5" x="19" y="44.88" width="6" height="6"/>
  <rect class="cls-5" x="19" y="60.88" width="6" height="6"/>
  <rect class="cls-5" x="39" y="44.88" width="6" height="6"/>
  <rect class="cls-5" x="39" y="60.88" width="6" height="6"/>
  <rect class="cls-5" x="59" y="44.88" width="6" height="6"/>
  <rect class="cls-5" x="59" y="60.88" width="6" height="6"/>
</svg>