<?xml version="1.0" encoding="UTF-8"?>
<svg id="Layer_1" data-name="Layer 1" xmlns="http://www.w3.org/2000/svg" viewBox="0 0 84 86">
  <defs>
    <style>
      .cls-1 {
        fill: #54c48b;
      }

      .cls-2 {
        fill: #e45d40;
      }
    </style>
  </defs>
  <path class="cls-2" d="M63.14,79.73c-.58,0-1.14-.34-1.38-.91l-4.14-9.66h-14.12v9.07c0,.83-.67,1.5-1.5,1.5s-1.5-.67-1.5-1.5v-9.07h-14.12l-4.14,9.66c-.33.76-1.21,1.11-1.97.79-.76-.33-1.11-1.21-.79-1.97l10.57-24.66c.1-.23.25-.42.42-.57-2.02-.99-3.91-2.23-5.64-3.72-3.51-3.03-6.12-6.91-7.63-11.24h-3.4c-.83,0-1.5-.67-1.5-1.5s.67-1.5,1.5-1.5h2.55c-.13-.6-.24-1.21-.33-1.82-.25-1.73-.43-2.98.55-4.11.98-1.12,2.27-1.12,4.22-1.12h42.41c1.88,0,3.23,0,4.2,1.12.98,1.13.8,2.38.55,4.1-.09.61-.2,1.22-.33,1.82h2.55c.83,0,1.5.67,1.5,1.5s-.67,1.5-1.5,1.5h-3.4c-1.5,4.32-4.12,8.21-7.63,11.24-1.72,1.49-3.62,2.74-5.64,3.72.18.15.33.34.43.57l10.57,24.66c.33.76-.03,1.64-.79,1.97-.19.08-.39.12-.59.12ZM43.5,66.16h12.83l-5.14-12c-.1-.23-.13-.47-.12-.7-2.42.89-4.97,1.42-7.57,1.57v11.13ZM27.67,66.16h12.83v-11.13c-2.6-.15-5.15-.68-7.57-1.57.02.23-.02.47-.12.7l-5.14,12ZM20.8,30.41c-.83,0-1.77,0-1.98.11-.04.17.08.97.18,1.68.8,5.52,3.57,10.57,7.79,14.22,4.22,3.64,9.61,5.65,15.18,5.65,0,0,.02,0,.03,0h.02c5.57,0,10.96-2.01,15.18-5.65,4.22-3.65,6.99-8.7,7.79-14.22.1-.71.22-1.52.15-1.72-.18-.08-1.09-.06-1.92-.08H20.8Z"/>
  <path class="cls-1" d="M29.47,23.36c-.41,0-.82-.17-1.11-.49-.56-.62-.51-1.56.11-2.12.34-.31.61-.67.79-1.09.19-.42.28-.86.28-1.32s-.09-.9-.28-1.32c-.19-.42-.45-.79-.79-1.09-.65-.59-1.16-1.29-1.52-2.1-.36-.8-.54-1.66-.54-2.54s.18-1.73.54-2.54c.36-.8.87-1.51,1.52-2.1.61-.56,1.56-.51,2.12.11.56.61.51,1.56-.11,2.12-.34.31-.61.67-.79,1.09-.19.42-.28.86-.28,1.32s.09.9.28,1.32c.19.42.45.79.79,1.09.65.59,1.17,1.3,1.52,2.1s.54,1.66.54,2.54-.18,1.73-.54,2.54c-.36.8-.87,1.51-1.52,2.1-.29.26-.65.39-1,.39Z"/>
  <path class="cls-1" d="M54.53,23.36c-.41,0-.82-.17-1.11-.5-.55-.62-.51-1.56.11-2.12.34-.31.61-.67.79-1.09.19-.42.28-.86.28-1.32s-.09-.9-.28-1.32c-.19-.42-.45-.78-.79-1.09-.65-.59-1.17-1.3-1.52-2.1s-.54-1.66-.54-2.54.18-1.73.54-2.54c.36-.8.87-1.51,1.52-2.1.61-.56,1.56-.51,2.12.11.56.61.51,1.56-.11,2.12-.34.31-.61.67-.79,1.09-.19.42-.28.86-.28,1.32s.09.9.28,1.32c.19.42.45.79.79,1.09.65.59,1.17,1.3,1.52,2.1.36.81.54,1.66.54,2.54s-.18,1.73-.54,2.54c-.36.81-.87,1.51-1.52,2.1-.29.26-.65.39-1,.39Z"/>
  <path class="cls-1" d="M42,23.36c-.41,0-.82-.17-1.11-.5-.56-.62-.51-1.56.11-2.12.34-.31.61-.67.79-1.09.19-.42.28-.86.28-1.32s-.09-.9-.28-1.32c-.19-.42-.45-.78-.79-1.09-.65-.59-1.16-1.29-1.52-2.1-.36-.81-.54-1.66-.54-2.54s.18-1.73.54-2.54c.36-.8.87-1.51,1.52-2.1.61-.56,1.56-.51,2.12.11s.51,1.56-.11,2.12c-.34.31-.61.67-.79,1.09-.19.42-.28.86-.28,1.32s.09.9.28,1.32c.19.42.45.78.79,1.09.65.59,1.17,1.3,1.52,2.1.36.81.54,1.66.54,2.54s-.18,1.73-.54,2.54c-.36.81-.87,1.51-1.52,2.1-.29.26-.65.39-1,.39Z"/>
</svg>