<svg width="140" height="81" viewBox="0 0 140 81" fill="none" xmlns="http://www.w3.org/2000/svg">
<path d="M91 0H134C137.314 0 140 2.68629 140 6V43C140 46.3137 137.314 49 134 49H91V0Z" fill="white"/>
<path d="M100.546 33.6875C100.265 33.4896 100.124 33.1042 100.124 32.5312C100.124 31.9583 100.416 31.3021 100.999 30.5625C101.187 30.3333 102.161 29.2812 103.921 27.4062C105.682 25.5208 106.843 24.1615 107.406 23.3281C108.479 21.7448 109.015 20.2292 109.015 18.7812C109.015 17.9375 108.76 17.224 108.249 16.6406C107.739 16.0573 106.994 15.7656 106.015 15.7656C105.275 15.7656 104.447 16.3646 103.531 17.5625C102.614 18.7604 101.952 19.3594 101.546 19.3594C101.14 19.3594 100.827 19.1875 100.609 18.8438C100.4 18.4896 100.296 18.099 100.296 17.6719C100.296 16.526 100.958 15.4583 102.281 14.4688C103.604 13.4792 105.239 12.9844 107.187 12.9844H107.687C107.708 12.9844 107.734 12.9844 107.765 12.9844C108.515 12.9844 109.281 13.1354 110.062 13.4375C112.395 14.3125 113.562 16.1198 113.562 18.8594C113.562 20.2448 112.958 21.7292 111.749 23.3125C111.104 24.1562 109.833 25.4688 107.937 27.25C106.041 29.0208 105.093 30.0365 105.093 30.2969C105.093 30.5573 105.749 30.6875 107.062 30.6875C108.374 30.6875 109.343 30.6198 109.968 30.4844C110.604 30.349 111.249 30.0208 111.906 29.5C112.562 28.9792 113.077 28.7188 113.452 28.7188C113.984 28.7188 114.249 29.1771 114.249 30.0938C114.249 31.875 113.942 33.0312 113.327 33.5625C112.984 33.8542 111.916 34 110.124 34H109.624L109.109 33.9844H108.093L103.468 33.8906C103.239 33.8906 102.9 33.901 102.452 33.9219L101.484 33.9688C101.15 33.9688 100.838 33.875 100.546 33.6875ZM120.172 19.2656C120.172 19.6719 120.287 20.0417 120.516 20.375C120.745 20.6979 121.027 20.8594 121.36 20.8594L121.829 20.8438L122.313 20.8125C122.532 20.8021 122.98 20.7969 123.657 20.7969C124.344 20.7969 125.105 20.9844 125.938 21.3594C127.73 22.1615 128.949 23.4531 129.594 25.2344C129.834 25.9115 129.954 26.7552 129.954 27.7656C129.954 28.7031 129.74 29.6354 129.313 30.5625C128.48 32.3958 127.027 33.651 124.954 34.3281C124.037 34.6302 122.949 34.7812 121.688 34.7812C120.438 34.7812 119.24 34.5 118.094 33.9375C116.949 33.375 116.376 32.6667 116.376 31.8125C116.376 31.3229 116.459 30.9427 116.626 30.6719C116.803 30.401 117.131 30.2656 117.61 30.2656C118.1 30.2656 118.745 30.5885 119.547 31.2344C120.35 31.8698 121.152 32.1875 121.954 32.1875C123.12 32.1875 124.027 31.8073 124.672 31.0469C125.318 30.276 125.641 29.3542 125.641 28.2812C125.641 26.7812 125.209 25.6302 124.344 24.8281C123.48 24.026 122.193 23.625 120.485 23.625L120.047 23.6406C119.756 23.651 119.391 23.6562 118.954 23.6562C117.881 23.6562 117.344 22.6771 117.344 20.7188C117.344 19.2812 117.464 17.8958 117.704 16.5625C117.954 15.2292 118.204 14.375 118.454 14C118.714 13.625 119.261 13.3698 120.094 13.2344C120.355 13.1927 121.126 13.1719 122.407 13.1719C123.699 13.1719 124.615 13.1458 125.157 13.0938L126.094 12.9844C126.99 12.8802 127.454 12.8281 127.485 12.8281H127.922C128.756 12.8281 129.172 13.2188 129.172 14C129.172 15.6875 128.235 16.5312 126.36 16.5312L122.922 16.4219C121.902 16.4219 121.188 16.599 120.782 16.9531C120.376 17.2969 120.172 18.0677 120.172 19.2656Z" fill="black"/>
<path d="M6 1.5H89.5V47.5H6C3.51472 47.5 1.5 45.4853 1.5 43V6C1.5 3.51472 3.51472 1.5 6 1.5Z" fill="#5200FF" stroke="#5200FF" stroke-width="3"/>
<path d="M35.5591 22.3623C36.5275 26.4069 37.0858 28.4292 37.2339 28.4292C37.382 28.4292 37.9688 26.3784 38.9941 22.2769C40.0195 18.1753 40.743 15.6574 41.1646 14.7231C41.5861 13.7775 42.019 13.1395 42.4634 12.8091C42.9077 12.4673 43.5116 12.2964 44.2749 12.2964C44.8787 12.2964 45.1807 12.7008 45.1807 13.5098C45.1807 13.8971 44.6851 16.3581 43.6938 20.8926C42.6799 25.5296 41.6146 29.4489 40.498 32.6504C39.8714 34.4505 38.7891 35.3506 37.251 35.3506C36.7725 35.3506 36.3509 35.1797 35.9863 34.8379C35.166 34.0859 34.1463 31.6136 32.9272 27.4209C31.7082 23.2168 31.0189 21.1147 30.8594 21.1147C30.791 21.1147 30.2441 22.7725 29.2188 26.0879C28.2048 29.3919 27.4642 31.5225 26.9971 32.4795C26.1995 34.1087 25.402 34.9233 24.6045 34.9233C23.0892 34.9233 22.0353 34.0745 21.4429 32.377L20.4346 28.959C20.2751 28.4007 20.0814 27.7171 19.8535 26.9082C19.637 26.0993 19.3636 25.1479 19.0332 24.0542C18.7142 22.9604 18.4806 22.1344 18.3325 21.5762L17.7173 19.2349C17.5122 18.4373 17.2331 17.429 16.8799 16.21C16.5381 14.9795 16.3672 14.068 16.3672 13.4756C16.3672 12.8717 16.7432 12.5698 17.4951 12.5698C19.0218 12.5698 20.1497 13.4528 20.8789 15.2188C21.2891 16.21 22.0296 18.6823 23.1006 22.6357C24.1715 26.5778 24.7526 28.5488 24.8438 28.5488C24.9349 28.5488 25.3906 27.2158 26.2109 24.5498C27.0312 21.8724 27.6579 19.6279 28.0908 17.8164C28.5352 16.0049 28.8314 14.9681 28.9795 14.7061C29.3555 14.0225 30.2726 13.6807 31.731 13.6807C32.5399 13.6807 33.1038 14.0396 33.4229 14.7573C33.8786 15.7713 34.5907 18.3063 35.5591 22.3623ZM57.7007 24.8574V24.5669C57.7007 23.6668 57.3988 22.9548 56.7949 22.4307C56.1911 21.9066 55.4676 21.6445 54.6245 21.6445H54.1973C53.2061 21.6445 52.3743 21.9806 51.7021 22.6528C51.0299 23.325 50.6938 24.1453 50.6938 25.1138V25.3872C50.6938 25.6948 51.0641 25.8486 51.8047 25.8486H52.6763L52.7788 25.8315L56.4019 25.6606L56.7778 25.6265C57.3931 25.6265 57.7007 25.3701 57.7007 24.8574ZM56.2993 28.583C52.6193 28.583 50.7793 28.9704 50.7793 29.7451C50.7793 30.7249 51.1382 31.4997 51.856 32.0693C52.5737 32.639 53.4795 32.9238 54.5732 32.9238C55.667 32.9238 56.7209 32.7814 57.7349 32.4966C58.7489 32.2004 59.4325 32.0522 59.7856 32.0522C60.1502 32.0522 60.4521 32.2004 60.6914 32.4966C60.9421 32.7814 61.0674 33.2144 61.0674 33.7954C61.0674 34.3651 60.4408 34.9461 59.1875 35.5386C57.9456 36.131 56.6639 36.4272 55.3423 36.4272H54.0947C53.1149 36.4272 52.0781 36.2279 50.9844 35.8291C48.8424 35.0544 47.4582 33.6416 46.8315 31.5908C46.4784 30.4515 46.3018 29.3008 46.3018 28.1387V27.3184C46.3018 23.1484 47.7715 20.4368 50.7109 19.1836C51.8047 18.7165 53.0465 18.4829 54.4365 18.4829C56.7949 18.4829 58.5894 19.0754 59.8198 20.2603C60.3439 20.7729 60.7882 21.5021 61.1528 22.4478C61.5288 23.3934 61.7168 24.265 61.7168 25.0625V26.2075C61.7168 27.1873 61.3636 27.8311 60.6572 28.1387C59.9622 28.4349 58.5096 28.583 56.2993 28.583ZM70.9556 32.9751H71.6392C72.8354 32.9751 73.7925 32.4567 74.5103 31.4199C75.0343 30.668 75.2964 29.4945 75.2964 27.8994V27.1816L75.2793 26.9937L75.2451 26.293C75.2451 26.293 75.2451 26.1733 75.2451 25.9341C75.2223 25.7062 75.2109 25.541 75.2109 25.4385C75.2109 24.3675 74.909 23.4447 74.3052 22.6699C73.7013 21.8838 72.9209 21.4907 71.9639 21.4907H71.2974C70.0441 21.4907 69.1156 21.9635 68.5117 22.9092C68.113 23.5244 67.9136 24.7093 67.9136 26.4639V28.1387L67.9307 28.3096L67.9819 29.2837C67.9933 29.3976 67.999 29.5059 67.999 29.6084C67.999 30.6452 68.2554 31.4655 68.7681 32.0693C69.2808 32.6732 70.0099 32.9751 70.9556 32.9751ZM72.562 36.0684H72.1519C71.3885 36.0684 70.5112 35.9032 69.52 35.5728C68.5288 35.2424 68.0161 35.0771 67.9819 35.0771C67.9591 35.0771 67.7712 35.1854 67.418 35.4019C67.0762 35.6183 66.609 35.7266 66.0166 35.7266C64.957 35.7266 64.3133 35.4759 64.0854 34.9746C63.869 34.4733 63.7607 33.1631 63.7607 31.0439V30.2407L63.7778 29.8306V27.4209L63.7949 26.2246C63.7949 25.5524 63.7949 24.8802 63.7949 24.208L63.812 23.4048C63.812 23.4048 63.812 21.4395 63.812 17.5088C63.812 13.9769 63.8633 11.9432 63.9658 11.4077C64.0798 10.8722 64.6323 10.6045 65.6235 10.6045H66.0166C66.9964 10.6045 67.623 10.8494 67.8965 11.3394C68.1699 11.8179 68.3066 13.1965 68.3066 15.4751C68.3066 17.7424 68.5801 18.876 69.127 18.876C69.2751 18.876 69.5884 18.7962 70.0669 18.6367C70.5454 18.4772 70.967 18.3519 71.3315 18.2607C71.6961 18.1696 72.3512 18.124 73.2969 18.124C74.2539 18.124 75.1312 18.3519 75.9287 18.8076C76.7262 19.252 77.37 19.8501 77.8599 20.6021C78.9422 22.2541 79.4834 24.265 79.4834 26.6348V27.4893C79.4834 31.5111 78.1789 34.1429 75.5698 35.3848C74.6128 35.8405 73.6102 36.0684 72.562 36.0684Z" fill="white"/>
</svg>
